<svg id="Camada_1" data-name="Camada 1" xmlns="http://www.w3.org/2000/svg" viewBox="0 0 51.61 9.68"><path d="M5.08,2.32l.51-.5-.51-.5-.51.5.51.5ZM6.6,6.86l-.51.5-.5-.5-.23-.23-.28-.28-.51-.5-.51-.5-.51-.51.51-.5.51.5.51-.5-.51-.51-.51-.5-.51-.5.51-.51.51.51.51.5L6.6,4.84l-.51.51-.5-.51-.51.51L6.6,6.86ZM3.05,4.34l.5-.51-.5-.5-.51.5L2,4.34l-.51.5L2,5.35l.51.5.51.5.5.51.51.5.51-.5-.51-.51-.51-.5-.5-.5-.51-.51.51-.5ZM5.59,7.86l-.51-.5-.51.5.51.51.51-.51ZM7.11,5.35l.51-.51-.51-.5L6.6,3.83l-.51-.5-.5-.5.5-.51.51.51.51.5,1,1,.51.5-.51.51-.5.5-.51.5-.51-.5Z" style="fill:#155079;fill-rule:evenodd"/><path d="M10.86,4.63l.21-.47a1.65,1.65,0,0,0,.89.28c.37,0,.52-.13.52-.29,0-.5-1.56-.16-1.56-1.15,0-.46.37-.84,1.13-.84A1.76,1.76,0,0,1,13,2.4l-.19.47a1.55,1.55,0,0,0-.74-.21c-.37,0-.52.14-.52.3,0,.5,1.57.16,1.57,1.14,0,.45-.38.84-1.14.84A2,2,0,0,1,10.86,4.63Z" style="fill:#155079"/><path d="M13.36,3.55a1.39,1.39,0,0,1,1.47-1.39,1.39,1.39,0,1,1,0,2.78A1.39,1.39,0,0,1,13.36,3.55Zm2.31,0a.84.84,0,1,0-1.68,0,.84.84,0,1,0,1.68,0Z" style="fill:#155079"/><path d="M17.39,2.7v.71h1.24v.5H17.39v1h-.62V2.21h2V2.7Z" style="fill:#155079"/><path d="M19.8,2.71h-.86v-.5h2.34v.5h-.86V4.89H19.8Z" style="fill:#155079"/><path d="M25.62,2.21l-.87,2.68h-.67l-.59-1.82-.61,1.82h-.67l-.88-2.68H22l.6,1.88.64-1.88h.57l.61,1.9L25,2.21Z" style="fill:#155079"/><path d="M27.66,4.31H26.41l-.24.58h-.63l1.19-2.68h.62l1.2,2.68h-.66Zm-.2-.47-.42-1-.43,1Z" style="fill:#155079"/><path d="M30.54,4.89,30,4.14h-.57v.75h-.62V2.21H30c.72,0,1.17.37,1.17,1a.88.88,0,0,1-.55.85l.6.86ZM30,2.71h-.51v.94H30c.38,0,.57-.18.57-.47S30.34,2.71,30,2.71Z" style="fill:#155079"/><path d="M33.73,4.39v.5H31.66V2.21h2V2.7H32.27v.59h1.25v.48H32.27v.62Z" style="fill:#155079"/><path d="M37.82,2.21V4.89h-.76v-1H36v1h-.76V2.21H36v1h1v-1Z" style="fill:#155079"/><path d="M38.23,3.55a1.49,1.49,0,1,1,1.49,1.39A1.4,1.4,0,0,1,38.23,3.55Zm2.21,0a.72.72,0,1,0-1.44,0,.72.72,0,1,0,1.44,0Z" style="fill:#155079"/><path d="M41.59,3.69V2.21h.76V3.67c0,.46.2.64.51.64s.51-.18.51-.64V2.21h.75V3.69a1.27,1.27,0,0,1-2.53,0Z" style="fill:#155079"/><path d="M44.45,4.65l.25-.56a1.65,1.65,0,0,0,.88.26c.32,0,.44-.08.44-.22C46,3.71,44.49,4,44.49,3c0-.48.4-.87,1.19-.87a2,2,0,0,1,1,.24L46.42,3a1.55,1.55,0,0,0-.74-.21c-.32,0-.43.11-.43.24,0,.41,1.52.11,1.52,1.1,0,.47-.39.86-1.19.86A2.07,2.07,0,0,1,44.45,4.65Z" style="fill:#155079"/><path d="M49.28,4.3v.59H47.12V2.21h2.11v.58H47.87v.46h1.2v.56h-1.2V4.3Z" style="fill:#155079"/><path d="M11.13,7h.61a.67.67,0,1,1,0,1.34h-.61Zm.59,1.08a.42.42,0,1,0,0-.83h-.28v.83Z" style="fill:#155079"/><path d="M14,8.12v.25H13V7h1v.25h-.71v.29h.62v.24h-.62v.31Z" style="fill:#155079"/><path d="M14.47,8.24,14.58,8a.72.72,0,0,0,.44.14c.19,0,.26-.06.26-.14,0-.25-.78-.08-.78-.58,0-.23.18-.42.56-.42a.89.89,0,0,1,.47.12l-.09.24a.82.82,0,0,0-.38-.11c-.18,0-.25.07-.25.16,0,.24.78.07.78.57,0,.22-.19.41-.57.41A1,1,0,0,1,14.47,8.24Z" style="fill:#155079"/><path d="M17.13,8.12v.25h-1V7h1v.25H16.4v.29H17v.24H16.4v.31Z" style="fill:#155079"/><path d="M18.9,7V8.37h-.26L18,7.55v.82h-.3V7h.25l.67.81V7Z" style="fill:#155079"/><path d="M20.79,7l-.58,1.34H19.9L19.32,7h.34l.41,1,.41-1Z" style="fill:#155079"/><path d="M21.09,7.7a.74.74,0,0,1,1.47,0,.74.74,0,0,1-1.47,0Zm1.16,0a.42.42,0,1,0-.84,0,.42.42,0,1,0,.84,0Z" style="fill:#155079"/><path d="M23.09,7h.31V8.12h.67v.25h-1Z" style="fill:#155079"/><path d="M25.73,7l-.58,1.34h-.31L24.27,7h.33L25,8l.41-1Z" style="fill:#155079"/><path d="M27.17,8.12v.25h-1V7h1v.25h-.71v.29h.63v.24h-.63v.31Z" style="fill:#155079"/><path d="M28.94,7V8.37h-.25L28,7.55v.82h-.31V7H28l.67.81V7Z" style="fill:#155079"/><path d="M29.55,7h.61a.67.67,0,1,1,0,1.34h-.61Zm.6,1.08a.42.42,0,1,0,0-.83h-.29v.83Z" style="fill:#155079"/><path d="M31.34,7.7a.74.74,0,0,1,1.47,0,.74.74,0,0,1-1.47,0Zm1.16,0a.42.42,0,1,0-.84,0,.42.42,0,1,0,.84,0Z" style="fill:#155079"/><path d="M34.06,8.24,34.17,8a.72.72,0,0,0,.44.14c.18,0,.26-.06.26-.14,0-.25-.78-.08-.78-.58,0-.23.18-.42.56-.42a.89.89,0,0,1,.47.12l-.1.24a.75.75,0,0,0-.37-.11c-.18,0-.25.07-.25.16,0,.24.78.07.78.57,0,.22-.19.41-.57.41A1,1,0,0,1,34.06,8.24Z" style="fill:#155079"/><path d="M35.67,7.78V7H36v.74c0,.25.11.36.3.36s.3-.11.3-.36V7h.31v.75a.61.61,0,1,1-1.22,0Z" style="fill:#155079"/><path d="M38.34,8.08h-.63l-.11.29h-.32L37.88,7h.3l.6,1.34h-.32Zm-.1-.23L38,7.33l-.22.52Z" style="fill:#155079"/><path d="M39.11,8.24l.1-.24a.75.75,0,0,0,.45.14c.18,0,.25-.06.25-.14,0-.25-.78-.08-.78-.58,0-.23.19-.42.57-.42a.91.91,0,0,1,.47.12l-.1.24a.78.78,0,0,0-.37-.11c-.19,0-.26.07-.26.16,0,.24.78.07.78.57,0,.22-.18.41-.57.41A1,1,0,0,1,39.11,8.24Z" style="fill:#155079"/><path d="M41.56,7h.31V8.37h-.31Z" style="fill:#155079"/><path d="M42.48,7h.61a.67.67,0,1,1,0,1.34h-.61Zm.59,1.08a.42.42,0,1,0,0-.83h-.28v.83Z" style="fill:#155079"/><path d="M45.39,8.12v.25h-1V7h1v.25h-.71v.29h.62v.24h-.62v.31Z" style="fill:#155079"/><path d="M45.93,7h.31V8.37h-.31Z" style="fill:#155079"/><path d="M47.73,8.08h-.62L47,8.37h-.32L47.27,7h.31l.6,1.34h-.33Zm-.1-.23-.21-.52-.21.52Z" style="fill:#155079"/><path d="M48.5,8.24,48.6,8a.77.77,0,0,0,.45.14c.18,0,.26-.06.26-.14,0-.25-.78-.08-.78-.58,0-.23.18-.42.56-.42a.91.91,0,0,1,.47.12l-.1.24a.75.75,0,0,0-.37-.11c-.18,0-.25.07-.25.16,0,.24.78.07.78.57,0,.22-.19.41-.57.41A1,1,0,0,1,48.5,8.24Z" style="fill:#155079"/><rect y="0.12" width="51.61" height="9.53" style="fill:none;stroke:#155079;stroke-miterlimit:10;stroke-width:0.25px"/><line x1="9.74" x2="9.74" y2="9.68" style="fill:none;stroke:#155079;stroke-miterlimit:10;stroke-width:0.25px"/></svg>