<?xml version="1.0" encoding="utf-8"?>
<!-- Generator: Adobe Illustrator 25.1.0, SVG Export Plug-In . SVG Version: 6.00 Build 0)  -->
<svg version="1.0" id="Camada_1" xmlns="http://www.w3.org/2000/svg" xmlns:xlink="http://www.w3.org/1999/xlink" x="0px" y="0px"
	 viewBox="0 0 56.69 14.44" style="enable-background:new 0 0 56.69 14.44;" xml:space="preserve">
<g>
	<path style="fill-rule:evenodd;clip-rule:evenodd;fill:#155079;" d="M33.44,2.3l0.72-0.72l-0.72-0.72l-0.72,0.72L33.44,2.3
		L33.44,2.3z M35.61,8.76l-0.72,0.72l-0.72-0.72l-0.33-0.32l-0.4-0.39l-0.72-0.72L31.99,6.6l-0.72-0.72l0.72-0.72l0.72,0.72
		l0.72-0.72c-0.24-0.24-0.48-0.48-0.72-0.72l-0.72-0.72l-0.72-0.72l0.72-0.72l0.72,0.72l0.72,0.72c0.72,0.72,1.45,1.44,2.17,2.15
		L34.88,6.6l-0.72-0.72L33.44,6.6C34.16,7.32,34.88,8.04,35.61,8.76L35.61,8.76z M30.54,5.17l0.72-0.72l-0.72-0.72l-0.72,0.72
		L29.1,5.17l-0.72,0.72L29.1,6.6l0.72,0.72l0.72,0.72l0.72,0.72l0.72,0.72l0.72-0.72l-0.72-0.72l-0.72-0.72L30.54,6.6l-0.72-0.72
		L30.54,5.17L30.54,5.17z M34.16,10.19l-0.72-0.72l-0.72,0.72l0.72,0.72L34.16,10.19L34.16,10.19z M36.33,6.6l0.72-0.72l-0.72-0.72
		l-0.72-0.72l-0.72-0.72l-0.72-0.72l0.72-0.72l0.72,0.72l0.72,0.72l1.45,1.44l0.72,0.72L37.78,6.6l-0.72,0.72l-0.72,0.72l-0.72-0.72
		L36.33,6.6z"/>
	<g>
		<path style="fill:#155079;" d="M1.4,10.64l0.23-0.52c0.25,0.18,0.62,0.31,0.98,0.31c0.41,0,0.57-0.14,0.57-0.32
			c0-0.56-1.73-0.17-1.73-1.28c0-0.5,0.41-0.92,1.25-0.92c0.37,0,0.75,0.09,1.03,0.26L3.53,8.7C3.26,8.54,2.97,8.47,2.71,8.47
			c-0.41,0-0.56,0.15-0.56,0.34c0,0.55,1.73,0.17,1.73,1.26c0,0.5-0.41,0.92-1.26,0.92C2.14,10.99,1.67,10.85,1.4,10.64z"/>
		<path style="fill:#155079;" d="M4.16,9.45c0-0.88,0.69-1.54,1.62-1.54c0.93,0,1.62,0.65,1.62,1.54s-0.69,1.54-1.62,1.54
			C4.85,10.99,4.16,10.33,4.16,9.45z M6.71,9.45c0-0.56-0.4-0.95-0.93-0.95S4.86,8.89,4.86,9.45c0,0.56,0.4,0.95,0.93,0.95
			S6.71,10.01,6.71,9.45z"/>
		<path style="fill:#155079;" d="M8.62,8.52V9.3h1.37v0.55H8.62v1.08H7.93V7.96h2.24v0.55H8.62z"/>
		<path style="fill:#155079;" d="M11.28,8.53h-0.95V7.96h2.59v0.56h-0.95v2.41h-0.69V8.53z"/>
		<path style="fill:#155079;" d="M17.72,7.96l-0.97,2.97h-0.74l-0.65-2.01l-0.67,2.01h-0.73l-0.98-2.97h0.71l0.67,2.09l0.7-2.09
			h0.64l0.68,2.1l0.69-2.1H17.72z"/>
		<path style="fill:#155079;" d="M19.97,10.3h-1.38l-0.26,0.64h-0.7l1.32-2.97h0.68l1.33,2.97h-0.72L19.97,10.3z M19.75,9.78
			l-0.47-1.14l-0.47,1.14H19.75z"/>
		<path style="fill:#155079;" d="M23.16,10.93l-0.57-0.83h-0.03h-0.6v0.83h-0.69V7.96h1.29c0.79,0,1.29,0.41,1.29,1.08
			c0,0.45-0.22,0.77-0.61,0.94l0.67,0.95H23.16z M22.51,8.53h-0.56v1.04h0.56c0.42,0,0.63-0.2,0.63-0.52
			C23.15,8.72,22.93,8.53,22.51,8.53z"/>
		<path style="fill:#155079;" d="M26.69,10.38v0.55h-2.3V7.96h2.24v0.55h-1.56v0.64h1.38V9.7h-1.38v0.69H26.69z"/>
		<path style="fill:#155079;" d="M42.63,7.96v2.97h-0.84V9.78h-1.15v1.16H39.8V7.96h0.84v1.12h1.15V7.96H42.63z"/>
		<path style="fill:#155079;" d="M43.07,9.45c0-0.89,0.7-1.54,1.65-1.54s1.65,0.65,1.65,1.54c0,0.89-0.7,1.54-1.65,1.54
			S43.07,10.34,43.07,9.45z M45.53,9.45c0-0.51-0.35-0.85-0.8-0.85s-0.8,0.33-0.8,0.85c0,0.51,0.35,0.85,0.8,0.85
			S45.53,9.96,45.53,9.45z"/>
		<path style="fill:#155079;" d="M46.79,9.61V7.96h0.84v1.62c0,0.51,0.21,0.71,0.56,0.71c0.35,0,0.56-0.2,0.56-0.71V7.96h0.83v1.65
			c0,0.89-0.52,1.38-1.4,1.38C47.31,10.99,46.79,10.5,46.79,9.61z"/>
		<path style="fill:#155079;" d="M49.95,10.67l0.28-0.62c0.26,0.17,0.64,0.29,0.98,0.29c0.35,0,0.48-0.1,0.48-0.24
			c0-0.47-1.69-0.13-1.69-1.23c0-0.53,0.43-0.96,1.31-0.96c0.39,0,0.78,0.09,1.08,0.26l-0.26,0.62c-0.28-0.15-0.56-0.23-0.82-0.23
			c-0.35,0-0.48,0.12-0.48,0.27c0,0.45,1.68,0.11,1.68,1.21c0,0.52-0.43,0.96-1.31,0.96C50.71,10.99,50.23,10.86,49.95,10.67z"/>
		<path style="fill:#155079;" d="M55.29,10.29v0.65h-2.38V7.96h2.33v0.65h-1.5v0.5h1.32v0.63h-1.32v0.54H55.29z"/>
	</g>
	<g>
		<path style="fill:#138AAF;" d="M7,12.07h0.67c0.49,0,0.82,0.29,0.82,0.74c0,0.45-0.33,0.74-0.82,0.74H7V12.07z M7.65,13.27
			c0.29,0,0.49-0.18,0.49-0.46s-0.19-0.46-0.49-0.46H7.34v0.92H7.65z"/>
		<path style="fill:#138AAF;" d="M10.22,13.28v0.28H9.07v-1.48h1.12v0.28H9.41v0.32h0.69v0.27H9.41v0.34H10.22z"/>
		<path style="fill:#138AAF;" d="M10.7,13.4l0.12-0.26c0.12,0.09,0.31,0.16,0.49,0.16c0.2,0,0.29-0.07,0.29-0.16
			c0-0.28-0.86-0.09-0.86-0.64c0-0.25,0.2-0.46,0.63-0.46c0.19,0,0.38,0.04,0.52,0.13l-0.11,0.26c-0.14-0.08-0.28-0.12-0.41-0.12
			c-0.2,0-0.28,0.08-0.28,0.17c0,0.27,0.86,0.08,0.86,0.63c0,0.25-0.21,0.46-0.63,0.46C11.07,13.58,10.83,13.51,10.7,13.4z"/>
		<path style="fill:#138AAF;" d="M13.64,13.28v0.28h-1.15v-1.48h1.12v0.28h-0.78v0.32h0.69v0.27h-0.69v0.34H13.64z"/>
		<path style="fill:#138AAF;" d="M15.59,12.07v1.48h-0.28l-0.74-0.9v0.9h-0.34v-1.48h0.28l0.74,0.9v-0.9H15.59z"/>
		<path style="fill:#138AAF;" d="M17.68,12.07l-0.64,1.48H16.7l-0.64-1.48h0.37l0.45,1.06l0.46-1.06H17.68z"/>
		<path style="fill:#138AAF;" d="M18.02,12.81c0-0.44,0.34-0.77,0.81-0.77c0.47,0,0.81,0.32,0.81,0.77s-0.35,0.77-0.81,0.77
			C18.36,13.58,18.02,13.25,18.02,12.81z M19.29,12.81c0-0.28-0.2-0.48-0.46-0.48s-0.46,0.19-0.46,0.48s0.2,0.47,0.46,0.47
			S19.29,13.09,19.29,12.81z"/>
		<path style="fill:#138AAF;" d="M20.22,12.07h0.34v1.2h0.74v0.28h-1.09V12.07z"/>
		<path style="fill:#138AAF;" d="M23.14,12.07l-0.64,1.48h-0.34l-0.64-1.48h0.37l0.45,1.06l0.46-1.06H23.14z"/>
		<path style="fill:#138AAF;" d="M24.74,13.28v0.28h-1.15v-1.48h1.12v0.28h-0.78v0.32h0.69v0.27h-0.69v0.34H24.74z"/>
		<path style="fill:#138AAF;" d="M26.69,12.07v1.48h-0.28l-0.74-0.9v0.9h-0.34v-1.48h0.28l0.74,0.9v-0.9H26.69z"/>
		<path style="fill:#138AAF;" d="M27.37,12.07h0.67c0.49,0,0.82,0.29,0.82,0.74c0,0.45-0.33,0.74-0.82,0.74h-0.67V12.07z
			 M28.02,13.27c0.29,0,0.49-0.18,0.49-0.46s-0.19-0.46-0.49-0.46h-0.31v0.92H28.02z"/>
		<path style="fill:#138AAF;" d="M29.34,12.81c0-0.44,0.34-0.77,0.81-0.77c0.47,0,0.81,0.32,0.81,0.77s-0.35,0.77-0.81,0.77
			C29.69,13.58,29.34,13.25,29.34,12.81z M30.62,12.81c0-0.28-0.2-0.48-0.46-0.48s-0.46,0.19-0.46,0.48s0.2,0.47,0.46,0.47
			S30.62,13.09,30.62,12.81z"/>
		<path style="fill:#138AAF;" d="M32.35,13.4l0.12-0.26c0.12,0.09,0.31,0.16,0.49,0.16c0.2,0,0.29-0.07,0.29-0.16
			c0-0.28-0.86-0.09-0.86-0.64c0-0.25,0.2-0.46,0.63-0.46c0.19,0,0.38,0.04,0.52,0.13l-0.11,0.26c-0.14-0.08-0.28-0.12-0.41-0.12
			c-0.2,0-0.28,0.08-0.28,0.17c0,0.27,0.86,0.08,0.86,0.63c0,0.25-0.21,0.46-0.63,0.46C32.72,13.58,32.48,13.51,32.35,13.4z"/>
		<path style="fill:#138AAF;" d="M34.13,12.9v-0.83h0.34v0.82c0,0.28,0.12,0.4,0.33,0.4c0.21,0,0.33-0.12,0.33-0.4v-0.82h0.34v0.83
			c0,0.44-0.25,0.68-0.67,0.68C34.38,13.58,34.13,13.33,34.13,12.9z"/>
		<path style="fill:#138AAF;" d="M37.08,13.23h-0.69l-0.13,0.32h-0.35l0.66-1.48h0.34l0.66,1.48h-0.36L37.08,13.23z M36.97,12.97
			l-0.24-0.57l-0.24,0.57H36.97z"/>
		<path style="fill:#138AAF;" d="M37.93,13.4l0.12-0.26c0.12,0.09,0.31,0.16,0.49,0.16c0.2,0,0.29-0.07,0.29-0.16
			c0-0.28-0.86-0.09-0.86-0.64c0-0.25,0.2-0.46,0.63-0.46c0.19,0,0.38,0.04,0.52,0.13l-0.11,0.26c-0.14-0.08-0.28-0.12-0.41-0.12
			c-0.2,0-0.28,0.08-0.28,0.17c0,0.27,0.86,0.08,0.86,0.63c0,0.25-0.21,0.46-0.63,0.46C38.3,13.58,38.06,13.51,37.93,13.4z"/>
		<path style="fill:#138AAF;" d="M40.64,12.07h0.34v1.48h-0.34V12.07z"/>
		<path style="fill:#138AAF;" d="M41.65,12.07h0.67c0.49,0,0.82,0.29,0.82,0.74c0,0.45-0.33,0.74-0.82,0.74h-0.67V12.07z
			 M42.31,13.27c0.29,0,0.49-0.18,0.49-0.46s-0.19-0.46-0.49-0.46H42v0.92H42.31z"/>
		<path style="fill:#138AAF;" d="M44.88,13.28v0.28h-1.15v-1.48h1.12v0.28h-0.78v0.32h0.69v0.27h-0.69v0.34H44.88z"/>
		<path style="fill:#138AAF;" d="M45.47,12.07h0.34v1.48h-0.34V12.07z"/>
		<path style="fill:#138AAF;" d="M47.46,13.23h-0.69l-0.13,0.32h-0.35l0.66-1.48h0.34l0.66,1.48h-0.36L47.46,13.23z M47.35,12.97
			l-0.24-0.57l-0.24,0.57H47.35z"/>
		<path style="fill:#138AAF;" d="M48.31,13.4l0.12-0.26c0.12,0.09,0.31,0.16,0.49,0.16c0.2,0,0.29-0.07,0.29-0.16
			c0-0.28-0.86-0.09-0.86-0.64c0-0.25,0.2-0.46,0.63-0.46c0.19,0,0.38,0.04,0.52,0.13l-0.11,0.26c-0.14-0.08-0.28-0.12-0.41-0.12
			c-0.2,0-0.28,0.08-0.28,0.17c0,0.27,0.86,0.08,0.86,0.63c0,0.25-0.21,0.46-0.63,0.46C48.68,13.58,48.44,13.51,48.31,13.4z"/>
	</g>
</g>
</svg>
