<?xml version="1.0" encoding="utf-8"?>
<!-- Generator: Adobe Illustrator 25.1.0, SVG Export Plug-In . SVG Version: 6.00 Build 0)  -->
<svg version="1.0" id="Camada_1" xmlns="http://www.w3.org/2000/svg" xmlns:xlink="http://www.w3.org/1999/xlink" x="0px" y="0px"
	 viewBox="0 0 56.69 56.69" style="enable-background:new 0 0 56.69 56.69;" xml:space="preserve">
<g>
	<path style="fill-rule:evenodd;clip-rule:evenodd;fill:#155079;" d="M28.23,10.14l1.46-1.45l-1.46-1.45l-1.46,1.45L28.23,10.14
		L28.23,10.14z M32.61,23.17l-1.46,1.45l-1.46-1.45l-0.66-0.65l-0.8-0.8l-1.46-1.45l-1.46-1.45l-1.46-1.45l1.46-1.45l1.46,1.45
		l1.46-1.45c-0.49-0.48-0.97-0.97-1.46-1.45l-1.46-1.45l-1.46-1.45l1.46-1.45l1.46,1.45l1.46,1.45c1.46,1.45,2.92,2.9,4.38,4.34
		l-1.46,1.45l-1.46-1.45l-1.46,1.45C29.69,20.27,31.15,21.72,32.61,23.17L32.61,23.17z M22.4,15.93l1.46-1.45l-1.46-1.45l-1.46,1.45
		l-1.46,1.45l-1.46,1.45l1.46,1.45l1.46,1.45l1.46,1.45l1.46,1.45l1.46,1.45l1.46-1.45l-1.46-1.45l-1.46-1.45l-1.46-1.45l-1.46-1.45
		L22.4,15.93L22.4,15.93z M29.69,26.06l-1.46-1.45l-1.46,1.45l1.46,1.45L29.69,26.06L29.69,26.06z M34.07,18.82l1.46-1.45
		l-1.46-1.45l-1.46-1.45l-1.46-1.45l-1.46-1.45l1.46-1.45l1.46,1.45l1.46,1.45l2.92,2.9l1.46,1.45l-1.46,1.45l-1.46,1.45l-1.46,1.45
		l-1.46-1.45L34.07,18.82z"/>
	<g>
		<path style="fill:#226193;" d="M14.5,33.63l0.25-0.56c0.27,0.2,0.68,0.34,1.06,0.34c0.44,0,0.62-0.15,0.62-0.35
			c0-0.6-1.88-0.19-1.88-1.39c0-0.55,0.44-1,1.36-1c0.41,0,0.82,0.1,1.12,0.29l-0.23,0.57c-0.3-0.17-0.61-0.25-0.89-0.25
			c-0.44,0-0.61,0.17-0.61,0.37c0,0.59,1.88,0.18,1.88,1.37c0,0.54-0.45,1-1.37,1C15.3,34,14.78,33.85,14.5,33.63z"/>
		<path style="fill:#226193;" d="M17.49,32.33c0-0.96,0.75-1.67,1.77-1.67c1.01,0,1.76,0.7,1.76,1.67c0,0.96-0.75,1.67-1.76,1.67
			C18.24,34,17.49,33.29,17.49,32.33z M20.27,32.33c0-0.61-0.43-1.03-1.01-1.03c-0.58,0-1.01,0.42-1.01,1.03s0.43,1.03,1.01,1.03
			C19.83,33.36,20.27,32.94,20.27,32.33z"/>
		<path style="fill:#226193;" d="M22.34,31.32v0.85h1.49v0.6h-1.49v1.18h-0.75v-3.23h2.44v0.6H22.34z"/>
		<path style="fill:#226193;" d="M25.23,31.33H24.2v-0.61h2.81v0.61h-1.03v2.62h-0.75V31.33z"/>
		<path style="fill:#226193;" d="M32.23,30.72l-1.05,3.23h-0.8l-0.71-2.18l-0.73,2.18h-0.8l-1.06-3.23h0.77l0.73,2.27l0.76-2.27
			h0.69L30.77,33l0.75-2.29H32.23z"/>
		<path style="fill:#226193;" d="M34.67,33.25h-1.5l-0.29,0.69h-0.76l1.44-3.23h0.74l1.44,3.23h-0.78L34.67,33.25z M34.44,32.69
			l-0.51-1.24l-0.51,1.24H34.44z"/>
		<path style="fill:#226193;" d="M38.14,33.94l-0.62-0.9h-0.04h-0.65v0.9h-0.75v-3.23h1.4c0.86,0,1.4,0.45,1.4,1.17
			c0,0.48-0.24,0.84-0.66,1.02l0.72,1.04H38.14z M37.44,31.33h-0.61v1.12h0.61c0.46,0,0.69-0.21,0.69-0.56
			C38.13,31.53,37.89,31.33,37.44,31.33z"/>
		<path style="fill:#226193;" d="M41.97,33.35v0.6h-2.5v-3.23h2.44v0.6h-1.7v0.7h1.5v0.58h-1.5v0.75H41.97z"/>
		<path style="fill:#226193;" d="M19.83,35.31v5.19h-1.47v-2.02h-2v2.02h-1.47v-5.19h1.47v1.95h2v-1.95H19.83z"/>
		<path style="fill:#226193;" d="M20.6,37.91c0-1.56,1.22-2.7,2.88-2.7s2.88,1.14,2.88,2.7c0,1.56-1.22,2.7-2.88,2.7
			S20.6,39.47,20.6,37.91z M24.88,37.91c0-0.9-0.62-1.48-1.4-1.48s-1.4,0.59-1.4,1.48c0,0.9,0.62,1.48,1.4,1.48
			S24.88,38.81,24.88,37.91z"/>
		<path style="fill:#226193;" d="M27.1,38.19v-2.88h1.47v2.83c0,0.89,0.37,1.25,0.99,1.25c0.61,0,0.98-0.36,0.98-1.25v-2.83h1.45
			v2.88c0,1.55-0.9,2.42-2.44,2.42S27.1,39.74,27.1,38.19z"/>
		<path style="fill:#226193;" d="M32.61,40.04l0.48-1.08c0.46,0.3,1.11,0.51,1.71,0.51c0.61,0,0.84-0.17,0.84-0.42
			c0-0.82-2.95-0.22-2.95-2.15c0-0.93,0.76-1.68,2.3-1.68c0.67,0,1.37,0.16,1.88,0.45l-0.45,1.09c-0.5-0.27-0.99-0.4-1.44-0.4
			c-0.62,0-0.84,0.21-0.84,0.47c0,0.79,2.94,0.2,2.94,2.11c0,0.9-0.76,1.68-2.3,1.68C33.94,40.61,33.1,40.38,32.61,40.04z"/>
		<path style="fill:#226193;" d="M41.94,39.37v1.13h-4.17v-5.19h4.07v1.13h-2.62v0.88h2.31v1.1h-2.31v0.95H41.94z"/>
	</g>
	<g>
		<path style="fill:#138AAF;" d="M15.23,42.56h0.73c0.53,0,0.89,0.32,0.89,0.81c0,0.49-0.36,0.81-0.89,0.81h-0.73V42.56z
			 M15.94,43.86c0.32,0,0.53-0.19,0.53-0.5c0-0.31-0.21-0.5-0.53-0.5H15.6v1H15.94z"/>
		<path style="fill:#138AAF;" d="M18.73,43.87v0.3h-1.25v-1.61h1.22v0.3h-0.85v0.35h0.75v0.29h-0.75v0.37H18.73z"/>
		<path style="fill:#138AAF;" d="M19.24,44.01l0.13-0.28c0.14,0.1,0.34,0.17,0.53,0.17c0.22,0,0.31-0.07,0.31-0.17
			c0-0.3-0.94-0.09-0.94-0.69c0-0.27,0.22-0.5,0.68-0.5c0.2,0,0.41,0.05,0.56,0.14l-0.12,0.28c-0.15-0.08-0.3-0.13-0.45-0.13
			c-0.22,0-0.31,0.08-0.31,0.18c0,0.3,0.94,0.09,0.94,0.68c0,0.27-0.22,0.5-0.68,0.5C19.64,44.2,19.39,44.12,19.24,44.01z"/>
		<path style="fill:#138AAF;" d="M22.43,43.87v0.3h-1.25v-1.61h1.22v0.3h-0.85v0.35h0.75v0.29h-0.75v0.37H22.43z"/>
		<path style="fill:#138AAF;" d="M24.56,42.56v1.61h-0.31l-0.8-0.98v0.98h-0.37v-1.61h0.31l0.8,0.98v-0.98H24.56z"/>
		<path style="fill:#138AAF;" d="M26.82,42.56l-0.7,1.61h-0.37l-0.7-1.61h0.4l0.49,1.15l0.5-1.15H26.82z"/>
		<path style="fill:#138AAF;" d="M27.18,43.36c0-0.48,0.37-0.83,0.88-0.83c0.51,0,0.88,0.35,0.88,0.83c0,0.48-0.38,0.83-0.88,0.83
			C27.56,44.2,27.18,43.84,27.18,43.36z M28.57,43.36c0-0.31-0.22-0.52-0.5-0.52s-0.5,0.21-0.5,0.52c0,0.31,0.22,0.52,0.5,0.52
			S28.57,43.67,28.57,43.36z"/>
		<path style="fill:#138AAF;" d="M29.58,42.56h0.37v1.31h0.81v0.3h-1.18V42.56z"/>
		<path style="fill:#138AAF;" d="M32.75,42.56l-0.7,1.61h-0.37l-0.7-1.61h0.4l0.49,1.15l0.5-1.15H32.75z"/>
		<path style="fill:#138AAF;" d="M34.48,43.87v0.3h-1.25v-1.61h1.22v0.3H33.6v0.35h0.75v0.29H33.6v0.37H34.48z"/>
		<path style="fill:#138AAF;" d="M36.6,42.56v1.61h-0.31l-0.8-0.98v0.98h-0.37v-1.61h0.31l0.8,0.98v-0.98H36.6z"/>
		<path style="fill:#138AAF;" d="M37.33,42.56h0.73c0.53,0,0.89,0.32,0.89,0.81c0,0.49-0.36,0.81-0.89,0.81h-0.73V42.56z
			 M38.04,43.86c0.32,0,0.53-0.19,0.53-0.5c0-0.31-0.21-0.5-0.53-0.5H37.7v1H38.04z"/>
		<path style="fill:#138AAF;" d="M39.47,43.36c0-0.48,0.37-0.83,0.88-0.83c0.51,0,0.88,0.35,0.88,0.83c0,0.48-0.38,0.83-0.88,0.83
			C39.85,44.2,39.47,43.84,39.47,43.36z M40.86,43.36c0-0.31-0.22-0.52-0.5-0.52s-0.5,0.21-0.5,0.52c0,0.31,0.22,0.52,0.5,0.52
			S40.86,43.67,40.86,43.36z"/>
		<path style="fill:#138AAF;" d="M19.35,46.77l0.13-0.28c0.14,0.1,0.34,0.17,0.53,0.17c0.22,0,0.31-0.07,0.31-0.17
			c0-0.3-0.94-0.09-0.94-0.69c0-0.27,0.22-0.5,0.68-0.5c0.2,0,0.41,0.05,0.56,0.14l-0.12,0.28c-0.15-0.08-0.3-0.13-0.45-0.13
			c-0.22,0-0.31,0.08-0.31,0.18c0,0.3,0.94,0.09,0.94,0.68c0,0.27-0.22,0.5-0.68,0.5C19.75,46.96,19.5,46.89,19.35,46.77z"/>
		<path style="fill:#138AAF;" d="M21.28,46.22v-0.9h0.37v0.89c0,0.31,0.13,0.43,0.36,0.43c0.23,0,0.36-0.13,0.36-0.43v-0.89h0.37
			v0.9c0,0.47-0.27,0.74-0.73,0.74S21.28,46.7,21.28,46.22z"/>
		<path style="fill:#138AAF;" d="M24.48,46.59h-0.75l-0.14,0.35h-0.38l0.72-1.61h0.37l0.72,1.61h-0.39L24.48,46.59z M24.37,46.31
			l-0.26-0.62l-0.26,0.62H24.37z"/>
		<path style="fill:#138AAF;" d="M25.41,46.77l0.13-0.28c0.14,0.1,0.34,0.17,0.53,0.17c0.22,0,0.31-0.07,0.31-0.17
			c0-0.3-0.94-0.09-0.94-0.69c0-0.27,0.22-0.5,0.68-0.5c0.2,0,0.41,0.05,0.56,0.14l-0.12,0.28c-0.15-0.08-0.3-0.13-0.45-0.13
			c-0.22,0-0.31,0.08-0.31,0.18c0,0.3,0.94,0.09,0.94,0.68c0,0.27-0.22,0.5-0.68,0.5C25.81,46.96,25.55,46.89,25.41,46.77z"/>
		<path style="fill:#138AAF;" d="M28.35,45.32h0.37v1.61h-0.37V45.32z"/>
		<path style="fill:#138AAF;" d="M29.45,45.32h0.73c0.53,0,0.89,0.32,0.89,0.81c0,0.49-0.36,0.81-0.89,0.81h-0.73V45.32z
			 M30.16,46.63c0.32,0,0.53-0.19,0.53-0.5c0-0.31-0.21-0.5-0.53-0.5h-0.34v1H30.16z"/>
		<path style="fill:#138AAF;" d="M32.94,46.63v0.3h-1.25v-1.61h1.22v0.3h-0.85v0.35h0.75v0.29h-0.75v0.37H32.94z"/>
		<path style="fill:#138AAF;" d="M33.59,45.32h0.37v1.61h-0.37V45.32z"/>
		<path style="fill:#138AAF;" d="M35.75,46.59H35l-0.14,0.35h-0.38l0.72-1.61h0.37l0.72,1.61h-0.39L35.75,46.59z M35.63,46.31
			l-0.26-0.62l-0.26,0.62H35.63z"/>
		<path style="fill:#138AAF;" d="M36.67,46.77l0.13-0.28c0.14,0.1,0.34,0.17,0.53,0.17c0.22,0,0.31-0.07,0.31-0.17
			c0-0.3-0.94-0.09-0.94-0.69c0-0.27,0.22-0.5,0.68-0.5c0.2,0,0.41,0.05,0.56,0.14l-0.12,0.28c-0.15-0.08-0.3-0.13-0.45-0.13
			c-0.22,0-0.31,0.08-0.31,0.18c0,0.3,0.94,0.09,0.94,0.68c0,0.27-0.22,0.5-0.68,0.5C37.07,46.96,36.81,46.89,36.67,46.77z"/>
	</g>
</g>
</svg>
