<?xml version="1.0" encoding="utf-8"?>
<!-- Generator: Adobe Illustrator 25.1.0, SVG Export Plug-In . SVG Version: 6.00 Build 0)  -->
<svg version="1.0" id="Camada_1" xmlns="http://www.w3.org/2000/svg" xmlns:xlink="http://www.w3.org/1999/xlink" x="0px" y="0px"
	 viewBox="0 0 56.69 56.69" style="enable-background:new 0 0 56.69 56.69;" xml:space="preserve">
<g>
	<path style="fill:#155079;" d="M39.27,46.95H17.42c-4.24,0-7.68-3.44-7.68-7.68V17.42c0-4.24,3.44-7.68,7.68-7.68h21.85
		c4.24,0,7.68,3.44,7.68,7.68v21.85C46.95,43.51,43.51,46.95,39.27,46.95z"/>
	<path style="fill-rule:evenodd;clip-rule:evenodd;fill:#FFFFFF;" d="M28.35,17.06l2.28-2.26l-2.28-2.26l-2.28,2.26L28.35,17.06
		L28.35,17.06z M35.17,37.38l-2.28,2.26l-2.28-2.26l-1.02-1.02l-1.25-1.24l-2.28-2.26L23.8,30.6l-2.28-2.26l2.28-2.26l2.28,2.26
		l2.28-2.26c-0.76-0.75-1.52-1.5-2.28-2.26l-2.28-2.26l-2.28-2.26l2.28-2.26l2.28,2.26l2.28,2.26c2.28,2.26,4.55,4.51,6.83,6.77
		L32.9,30.6l-2.28-2.26l-2.28,2.26C30.62,32.86,32.9,35.12,35.17,37.38L35.17,37.38z M19.25,26.09l2.28-2.26l-2.28-2.26l-2.28,2.26
		l-2.28,2.26l-2.28,2.26l2.28,2.26l2.28,2.26l2.28,2.26l2.28,2.26l2.28,2.26l2.28-2.26l-2.28-2.26l-2.28-2.26l-2.28-2.26l-2.28-2.26
		L19.25,26.09L19.25,26.09z M30.62,41.89l-2.28-2.26l-2.28,2.26l2.28,2.26L30.62,41.89L30.62,41.89z M37.45,30.6l2.28-2.26
		l-2.28-2.26l-2.28-2.26l-2.28-2.26l-2.28-2.26l2.28-2.26l2.28,2.26l2.28,2.26L42,26.09l2.28,2.26L42,30.6l-2.28,2.26l-2.28,2.26
		l-2.28-2.26L37.45,30.6z"/>
</g>
</svg>
